<?xml version="1.0" encoding="UTF-8"?>
<!DOCTYPE svg PUBLIC "-//W3C//DTD SVG 1.1//EN" "http://www.w3.org/Graphics/SVG/1.1/DTD/svg11.dtd">
<svg xmlns="http://www.w3.org/2000/svg" version="1.1" width="512px" height="512px" style="shape-rendering:geometricPrecision; text-rendering:geometricPrecision; image-rendering:optimizeQuality; fill-rule:evenodd; clip-rule:evenodd" xmlns:xlink="http://www.w3.org/1999/xlink">
<g><path style="opacity:0.937" fill="#000000" d="M 511.5,127.5 C 511.5,186.5 511.5,245.5 511.5,304.5C 507.272,319.224 497.606,328.391 482.5,332C 368.5,332.667 254.5,332.667 140.5,332C 133.599,326.58 133.933,321.58 141.5,317C 241.499,316.5 341.499,316.333 441.5,316.5C 441.5,312.5 441.5,308.5 441.5,304.5C 425.83,304.667 410.163,304.5 394.5,304C 389.776,301.565 388.276,297.731 390,292.5C 391.214,290.951 392.714,289.785 394.5,289C 410.163,288.5 425.83,288.333 441.5,288.5C 441.5,284.5 441.5,280.5 441.5,276.5C 317.5,276.5 193.5,276.5 69.5,276.5C 69.5,280.5 69.5,284.5 69.5,288.5C 169.834,288.333 270.167,288.5 370.5,289C 377.15,293.956 377.15,298.956 370.5,304C 270.167,304.5 169.834,304.667 69.5,304.5C 69.5,308.5 69.5,312.5 69.5,316.5C 85.1702,316.333 100.837,316.5 116.5,317C 121.069,319.541 122.569,323.375 121,328.5C 119.833,329.667 118.667,330.833 117.5,332C 87.8333,332.667 58.1667,332.667 28.5,332C 13.3944,328.391 3.72772,319.224 -0.5,304.5C -0.5,245.5 -0.5,186.5 -0.5,127.5C 3.33629,114.044 12.003,105.21 25.5,101C 48.1244,99.3869 70.7911,99.0536 93.5,100C 101.067,104.58 101.401,109.58 94.5,115C 72.4497,115.043 50.4497,115.71 28.5,117C 22.2421,119.59 18.0754,124.09 16,130.5C 15.3333,187.833 15.3333,245.167 16,302.5C 18.1055,308.272 21.9389,312.438 27.5,315C 35.7492,316.406 44.0826,316.906 52.5,316.5C 52.3334,300.163 52.5001,283.83 53,267.5C 53.4057,264.506 54.9057,262.339 57.5,261C 189.5,260.333 321.5,260.333 453.5,261C 456.094,262.339 457.594,264.506 458,267.5C 458.5,283.83 458.667,300.163 458.5,316.5C 466.917,316.906 475.251,316.406 483.5,315C 489.061,312.438 492.894,308.272 495,302.5C 495.667,245.167 495.667,187.833 495,130.5C 491.994,122.827 486.494,117.994 478.5,116C 358.167,115.667 237.833,115.333 117.5,115C 113.788,112.398 112.622,108.898 114,104.5C 114.833,102.333 116.333,100.833 118.5,100C 239.167,99.3333 359.833,99.3333 480.5,100C 496.684,102.733 507.018,111.899 511.5,127.5 Z"/></g>
<g><path style="opacity:0.931" fill="#000000" d="M 249.5,145.5 C 298.168,145.333 346.834,145.5 395.5,146C 402.663,149.994 403.33,154.994 397.5,161C 347.5,161.667 297.5,161.667 247.5,161C 244.634,159.607 243.301,157.274 243.5,154C 243.451,149.572 245.451,146.738 249.5,145.5 Z"/></g>
<g><path style="opacity:0.91" fill="#000000" d="M 425.5,145.5 C 434.506,145.334 443.506,145.5 452.5,146C 458.152,149.441 459.318,153.941 456,159.5C 455.25,160.126 454.416,160.626 453.5,161C 443.833,161.667 434.167,161.667 424.5,161C 417.663,155.475 417.996,150.308 425.5,145.5 Z"/></g>
<g><path style="opacity:0.909" fill="#000000" d="M 138.5,351.5 C 142.31,351.379 145.477,352.712 148,355.5C 148.917,378.421 140.083,396.587 121.5,410C 117.372,412.11 113.539,411.61 110,408.5C 108.75,405.923 108.416,403.257 109,400.5C 113.248,396.184 117.581,391.85 122,387.5C 128.754,377.91 132.754,367.243 134,355.5C 135.397,353.93 136.897,352.596 138.5,351.5 Z"/></g>
<g><path style="opacity:0.919" fill="#000000" d="M 192.5,351.5 C 196.794,351.198 199.961,352.864 202,356.5C 202.667,373.167 202.667,389.833 202,406.5C 198.914,411.752 194.747,412.752 189.5,409.5C 188.416,408.335 187.583,407.002 187,405.5C 186.333,389.5 186.333,373.5 187,357.5C 188.021,354.65 189.854,352.65 192.5,351.5 Z"/></g>
<g><path style="opacity:0.918" fill="#000000" d="M 255.5,351.5 C 259.794,351.198 262.961,352.864 265,356.5C 265.667,373.167 265.667,389.833 265,406.5C 261.929,411.299 257.762,412.465 252.5,410C 251.107,408.829 250.273,407.329 250,405.5C 249.333,389.5 249.333,373.5 250,357.5C 251.021,354.65 252.854,352.65 255.5,351.5 Z"/></g>
<g><path style="opacity:0.919" fill="#000000" d="M 314.5,351.5 C 319.062,351.361 322.229,353.361 324,357.5C 324.667,373.5 324.667,389.5 324,405.5C 321.305,411.098 317.138,412.598 311.5,410C 310.299,409.097 309.465,407.931 309,406.5C 308.333,389.833 308.333,373.167 309,356.5C 310.107,353.887 311.94,352.22 314.5,351.5 Z"/></g>
<g><path style="opacity:0.909" fill="#000000" d="M 368.5,351.5 C 372.025,351.346 374.859,352.679 377,355.5C 378.514,373.535 386.514,387.868 401,398.5C 403.789,408.865 399.956,412.698 389.5,410C 370.915,396.58 362.082,378.413 363,355.5C 364.5,353.531 366.333,352.198 368.5,351.5 Z"/></g>
</svg>
