<?xml version="1.0" encoding="UTF-8"?>
<!DOCTYPE svg PUBLIC "-//W3C//DTD SVG 1.1//EN" "http://www.w3.org/Graphics/SVG/1.1/DTD/svg11.dtd">
<svg xmlns="http://www.w3.org/2000/svg" version="1.1" width="512px" height="512px" style="shape-rendering:geometricPrecision; text-rendering:geometricPrecision; image-rendering:optimizeQuality; fill-rule:evenodd; clip-rule:evenodd" xmlns:xlink="http://www.w3.org/1999/xlink">
<g><path style="opacity:0.93" fill="#000000" d="M 466.5,88.5 C 469.747,88.4152 472.581,89.4152 475,91.5C 476.37,99.6477 478.37,107.648 481,115.5C 483.287,129.745 478.787,141.245 467.5,150C 471.613,153.509 472.446,157.676 470,162.5C 465.833,166.667 461.667,170.833 457.5,175C 463.656,182.48 467.823,190.98 470,200.5C 477.359,238.131 484.526,275.797 491.5,313.5C 491.444,316.111 490.444,318.278 488.5,320C 471.849,324.646 462.349,335.479 460,352.5C 459.667,365.833 459.333,379.167 459,392.5C 458.654,394.848 457.487,396.681 455.5,398C 310.833,398.667 166.167,398.667 21.5,398C 20.6667,397.167 19.8333,396.333 19,395.5C 18.3333,383.5 18.3333,371.5 19,359.5C 19.5,357.667 20.6667,356.5 22.5,356C 26.1516,355.501 29.8183,355.335 33.5,355.5C 50.6702,291.63 85.0035,239.13 136.5,198C 167.832,174.01 203.165,159.343 242.5,154C 302.854,152.357 363.187,152.024 423.5,153C 429.864,146.301 436.531,139.968 443.5,134C 449.269,132.632 453.769,134.466 457,139.5C 462.782,135.06 465.948,129.227 466.5,122C 465.21,115.794 463.71,109.627 462,103.5C 461.333,99.8333 461.333,96.1667 462,92.5C 463.397,90.9297 464.897,89.5964 466.5,88.5 Z M 446.5,151.5 C 448.812,153.146 450.812,155.146 452.5,157.5C 450.798,160.037 448.631,162.037 446,163.5C 443.766,162.299 441.599,160.965 439.5,159.5C 441.856,156.814 444.189,154.147 446.5,151.5 Z M 253.5,167.5 C 308.168,167.333 362.834,167.5 417.5,168C 436.704,172.203 449.204,183.703 455,202.5C 461.772,237.86 468.605,273.193 475.5,308.5C 455.932,317.944 445.599,333.611 444.5,355.5C 312.5,355.667 180.5,355.5 48.5,355C 68.3459,288.915 106.679,236.582 163.5,198C 191.245,180.919 221.245,170.752 253.5,167.5 Z M 287.5,214.5 C 330.5,214.5 373.5,214.5 416.5,214.5C 420.85,234.569 425.517,254.569 430.5,274.5C 408.177,275.5 385.843,275.833 363.5,275.5C 363.951,265.062 363.451,254.729 362,244.5C 361.097,243.299 359.931,242.465 358.5,242C 340.167,241.333 321.833,241.333 303.5,242C 301.714,242.785 300.214,243.951 299,245.5C 298.5,255.494 298.334,265.494 298.5,275.5C 268.498,275.667 238.498,275.5 208.5,275C 223.852,240.341 250.186,220.174 287.5,214.5 Z M 313.5,256.5 C 325.167,256.5 336.833,256.5 348.5,256.5C 348.5,262.833 348.5,269.167 348.5,275.5C 336.833,275.5 325.167,275.5 313.5,275.5C 313.5,269.167 313.5,262.833 313.5,256.5 Z M 32.5,370.5 C 169.833,370.5 307.167,370.5 444.5,370.5C 444.5,374.833 444.5,379.167 444.5,383.5C 307.167,383.5 169.833,383.5 32.5,383.5C 32.5,379.167 32.5,374.833 32.5,370.5 Z"/></g>
<g><path style="opacity:0.929" fill="#000000" d="M 285.5,199.5 C 331.893,199.015 378.227,199.515 424.5,201C 428.01,203.169 430.177,206.336 431,210.5C 435.667,230.5 440.333,250.5 445,270.5C 446.068,275.768 445.401,280.768 443,285.5C 441.048,287.894 438.548,289.394 435.5,290C 354.777,290.991 274.11,290.658 193.5,289C 190.024,285.263 189.524,281.096 192,276.5C 208.095,232.242 239.262,206.575 285.5,199.5 Z M 287.5,214.5 C 250.186,220.174 223.852,240.341 208.5,275C 238.498,275.5 268.498,275.667 298.5,275.5C 298.334,265.494 298.5,255.494 299,245.5C 300.214,243.951 301.714,242.785 303.5,242C 321.833,241.333 340.167,241.333 358.5,242C 359.931,242.465 361.097,243.299 362,244.5C 363.451,254.729 363.951,265.062 363.5,275.5C 385.843,275.833 408.177,275.5 430.5,274.5C 425.517,254.569 420.85,234.569 416.5,214.5C 373.5,214.5 330.5,214.5 287.5,214.5 Z M 313.5,256.5 C 313.5,262.833 313.5,269.167 313.5,275.5C 325.167,275.5 336.833,275.5 348.5,275.5C 348.5,269.167 348.5,262.833 348.5,256.5C 336.833,256.5 325.167,256.5 313.5,256.5 Z"/></g>
<g><path style="opacity:0.925" fill="#000000" d="M 195.5,319.5 C 237.168,319.333 278.835,319.5 320.5,320C 327.167,324.667 327.167,329.333 320.5,334C 278.833,334.667 237.167,334.667 195.5,334C 188.899,329.171 188.899,324.338 195.5,319.5 Z"/></g>
</svg>
