<?xml version="1.0" encoding="UTF-8"?>
<!DOCTYPE svg PUBLIC "-//W3C//DTD SVG 1.1//EN" "http://www.w3.org/Graphics/SVG/1.1/DTD/svg11.dtd">
<svg xmlns="http://www.w3.org/2000/svg" version="1.1" width="512px" height="512px" style="shape-rendering:geometricPrecision; text-rendering:geometricPrecision; image-rendering:optimizeQuality; fill-rule:evenodd; clip-rule:evenodd" xmlns:xlink="http://www.w3.org/1999/xlink">
<g><path style="opacity:0.939" fill="#000000" d="M 54.5,-0.5 C 59.5,-0.5 64.5,-0.5 69.5,-0.5C 84.2251,4.92046 90.8918,15.5871 89.5,31.5C 98.1667,31.5 106.833,31.5 115.5,31.5C 114.815,23.0237 118.482,17.5237 126.5,15C 182.558,14.0125 238.558,14.3458 294.5,16C 297.473,17.7648 299.64,20.2648 301,23.5C 301.667,79.5 301.667,135.5 301,191.5C 299.5,195.667 296.667,198.5 292.5,200C 236.5,200.667 180.5,200.667 124.5,200C 117.487,196.792 114.487,191.292 115.5,183.5C 106.833,183.5 98.1667,183.5 89.5,183.5C 89.5,273.5 89.5,363.5 89.5,453.5C 106.993,451.196 118.827,458.196 125,474.5C 125.667,484.5 125.667,494.5 125,504.5C 123.306,507.358 121.139,509.691 118.5,511.5C 81.1667,511.5 43.8333,511.5 6.5,511.5C 3.83333,509.5 1.5,507.167 -0.5,504.5C -0.5,494.5 -0.5,484.5 -0.5,474.5C 5.97667,458.409 17.9767,451.409 35.5,453.5C 35.3333,413.165 35.5,372.832 36,332.5C 37.5286,329.484 40.0286,328.151 43.5,328.5C 47.1774,328.336 49.6774,330.003 51,333.5C 51.5,373.499 51.6667,413.499 51.5,453.5C 58.8333,453.5 66.1667,453.5 73.5,453.5C 73.6667,309.833 73.5,166.166 73,22.5C 69.2303,15.5864 63.7303,13.7531 56.5,17C 54.6217,18.5429 53.1217,20.3762 52,22.5C 51.6667,116.5 51.3333,210.5 51,304.5C 48.5647,309.224 44.7314,310.724 39.5,309C 38.3333,307.833 37.1667,306.667 36,305.5C 35.3333,210.167 35.3333,114.833 36,19.5C 39.2909,10.047 45.4575,3.38033 54.5,-0.5 Z M 131.5,30.5 C 182.833,30.5 234.167,30.5 285.5,30.5C 285.5,81.8333 285.5,133.167 285.5,184.5C 234.167,184.5 182.833,184.5 131.5,184.5C 131.5,133.167 131.5,81.8333 131.5,30.5 Z M 89.5,47.5 C 98.1667,47.5 106.833,47.5 115.5,47.5C 115.5,54.1667 115.5,60.8333 115.5,67.5C 106.833,67.5 98.1667,67.5 89.5,67.5C 89.5,60.8333 89.5,54.1667 89.5,47.5 Z M 188.5,60.5 C 197.506,60.3336 206.506,60.5002 215.5,61C 232.814,67.1242 237.981,78.6242 231,95.5C 227.359,100.578 222.525,104.078 216.5,106C 207.173,106.5 197.839,106.666 188.5,106.5C 188.5,91.1667 188.5,75.8333 188.5,60.5 Z M 89.5,83.5 C 98.1667,83.5 106.833,83.5 115.5,83.5C 115.5,99.5 115.5,115.5 115.5,131.5C 106.833,131.5 98.1667,131.5 89.5,131.5C 89.5,115.5 89.5,99.5 89.5,83.5 Z M 89.5,147.5 C 98.1667,147.5 106.833,147.5 115.5,147.5C 115.5,154.167 115.5,160.833 115.5,167.5C 106.833,167.5 98.1667,167.5 89.5,167.5C 89.5,160.833 89.5,154.167 89.5,147.5 Z M 24.5,469.5 C 49.8355,469.333 75.1689,469.5 100.5,470C 104.667,471.5 107.5,474.333 109,478.5C 109.499,484.157 109.666,489.824 109.5,495.5C 77.8333,495.5 46.1667,495.5 14.5,495.5C 14.2614,489.435 14.7614,483.435 16,477.5C 18.0738,473.923 20.9072,471.256 24.5,469.5 Z"/></g>
<g><path style="opacity:0.936" fill="#000000" d="M 176.5,44.5 C 190.171,44.3334 203.837,44.5001 217.5,45C 241.089,50.9386 251.922,66.1052 250,90.5C 246.269,107.231 236.103,117.731 219.5,122C 209.172,122.5 198.839,122.666 188.5,122.5C 188.934,137.558 188.434,152.558 187,167.5C 182.333,171.5 177.667,171.5 173,167.5C 172.333,127.833 172.333,88.1667 173,48.5C 174.376,47.2949 175.542,45.9616 176.5,44.5 Z M 188.5,60.5 C 188.5,75.8333 188.5,91.1667 188.5,106.5C 197.839,106.666 207.173,106.5 216.5,106C 222.525,104.078 227.359,100.578 231,95.5C 237.981,78.6242 232.814,67.1242 215.5,61C 206.506,60.5002 197.506,60.3336 188.5,60.5 Z"/></g>
<g><path style="opacity:0.938" fill="#000000" d="M 511.5,307.5 C 511.5,312.833 511.5,318.167 511.5,323.5C 506.763,337.221 497.096,345.221 482.5,347.5C 487.496,356.489 491.662,365.823 495,375.5C 495.667,404.5 495.667,433.5 495,462.5C 494.129,466.926 491.796,470.259 488,472.5C 487.918,481.908 487.251,491.241 486,500.5C 483.563,505.774 479.729,509.44 474.5,511.5C 458.833,511.5 443.167,511.5 427.5,511.5C 421.546,509.043 417.379,504.71 415,498.5C 414.5,490.173 414.334,481.84 414.5,473.5C 390.831,473.667 367.164,473.5 343.5,473C 339.723,470.089 338.556,466.256 340,461.5C 341.214,459.951 342.714,458.785 344.5,458C 389.499,457.5 434.499,457.333 479.5,457.5C 479.667,431.165 479.5,404.831 479,378.5C 474.713,367.926 469.88,357.592 464.5,347.5C 374.835,346.333 285.169,346.167 195.5,347C 189.379,357.742 184.212,368.909 180,380.5C 179.5,406.165 179.333,431.831 179.5,457.5C 224.835,457.333 270.168,457.5 315.5,458C 320.224,460.435 321.724,464.269 320,469.5C 318.833,470.667 317.667,471.833 316.5,473C 292.836,473.5 269.169,473.667 245.5,473.5C 245.876,482.235 245.376,490.902 244,499.5C 241.577,504.939 237.743,508.939 232.5,511.5C 216.5,511.5 200.5,511.5 184.5,511.5C 181.979,509.981 179.479,508.314 177,506.5C 175.414,504.33 174.08,501.996 173,499.5C 171.945,490.206 171.112,480.873 170.5,471.5C 166.391,469.031 164.224,465.364 164,460.5C 163.333,433.167 163.333,405.833 164,378.5C 166.98,367.371 171.48,356.871 177.5,347C 156.312,343.467 146.479,330.967 148,309.5C 150.721,296.446 158.554,288.279 171.5,285C 183.167,284.667 194.833,284.333 206.5,284C 211.856,272.787 217.356,261.621 223,250.5C 227.744,242.038 234.911,236.872 244.5,235C 301.5,234.333 358.5,234.333 415.5,235C 422.576,236.405 428.409,239.905 433,245.5C 440.281,257.728 446.781,270.395 452.5,283.5C 465.542,284.076 478.542,284.91 491.5,286C 501.535,290.196 508.202,297.363 511.5,307.5 Z M 246.5,250.5 C 302.168,250.333 357.834,250.5 413.5,251C 419.061,253.562 422.894,257.728 425,263.5C 435.372,285.743 445.872,307.909 456.5,330C 372.165,330.833 287.831,330.667 203.5,329.5C 215.154,304.193 227.321,279.193 240,254.5C 242.013,252.752 244.18,251.418 246.5,250.5 Z M 174.5,300.5 C 182.528,300.169 190.528,300.502 198.5,301.5C 194.167,310.833 189.833,320.167 185.5,329.5C 175.461,332.23 168.295,328.896 164,319.5C 162.822,310.518 166.322,304.184 174.5,300.5 Z M 460.5,301.5 C 468.656,300.343 476.99,300.177 485.5,301C 495.723,306.295 498.223,314.128 493,324.5C 488.032,330.115 481.865,331.948 474.5,330C 469.931,320.362 465.264,310.862 460.5,301.5 Z M 230.5,385.5 C 244.291,384.46 251.124,390.794 251,404.5C 246.017,416.94 237.517,420.107 225.5,414C 216.362,402.607 218.028,393.107 230.5,385.5 Z M 419.5,385.5 C 431.249,384.364 438.249,389.53 440.5,401C 437.038,416.065 428.371,420.398 414.5,414C 405.258,402.593 406.924,393.093 419.5,385.5 Z M 187.5,473.5 C 201.5,473.5 215.5,473.5 229.5,473.5C 229.666,480.175 229.5,486.842 229,493.5C 228.097,494.701 226.931,495.535 225.5,496C 214.167,496.667 202.833,496.667 191.5,496C 190.069,495.535 188.903,494.701 188,493.5C 187.5,486.842 187.334,480.175 187.5,473.5 Z M 430.5,473.5 C 444.167,473.5 457.833,473.5 471.5,473.5C 471.666,480.508 471.5,487.508 471,494.5C 470.25,495.126 469.416,495.626 468.5,496C 456.833,496.667 445.167,496.667 433.5,496C 432.584,495.626 431.75,495.126 431,494.5C 430.5,487.508 430.334,480.508 430.5,473.5 Z"/></g>
<g><path style="opacity:0.925" fill="#000000" d="M 228.5,369.5 C 254.321,368.49 267.154,380.823 267,406.5C 262.938,423.213 252.272,432.213 235,433.5C 212.077,430.571 201.743,417.571 204,394.5C 207.683,381.651 215.85,373.318 228.5,369.5 Z M 230.5,385.5 C 218.028,393.107 216.362,402.607 225.5,414C 237.517,420.107 246.017,416.94 251,404.5C 251.124,390.794 244.291,384.46 230.5,385.5 Z"/></g>
<g><path style="opacity:0.926" fill="#000000" d="M 417.5,369.5 C 440.161,368.152 453.161,378.652 456.5,401C 452.347,427.244 437.347,437.244 411.5,431C 393.07,420.476 387.903,405.31 396,385.5C 401.099,377.215 408.265,371.882 417.5,369.5 Z M 419.5,385.5 C 406.924,393.093 405.258,402.593 414.5,414C 428.371,420.398 437.038,416.065 440.5,401C 438.249,389.53 431.249,384.364 419.5,385.5 Z"/></g>
<g><path style="opacity:0.924" fill="#000000" d="M 288.5,383.5 C 315.835,383.333 343.169,383.5 370.5,384C 375.224,386.435 376.724,390.269 375,395.5C 373.786,397.049 372.286,398.215 370.5,399C 343.167,399.667 315.833,399.667 288.5,399C 281.914,393.84 281.914,388.673 288.5,383.5 Z"/></g>
<g><path style="opacity:0.926" fill="#000000" d="M 288.5,417.5 C 316.169,417.333 343.835,417.5 371.5,418C 375.277,420.955 376.443,424.788 375,429.5C 373.786,431.049 372.286,432.215 370.5,433C 343.5,433.667 316.5,433.667 289.5,433C 281.851,428.257 281.518,423.09 288.5,417.5 Z"/></g>
</svg>
