<?xml version="1.0" encoding="UTF-8"?>
<!DOCTYPE svg PUBLIC "-//W3C//DTD SVG 1.1//EN" "http://www.w3.org/Graphics/SVG/1.1/DTD/svg11.dtd">
<svg xmlns="http://www.w3.org/2000/svg" version="1.1" width="512px" height="512px" style="shape-rendering:geometricPrecision; text-rendering:geometricPrecision; image-rendering:optimizeQuality; fill-rule:evenodd; clip-rule:evenodd" xmlns:xlink="http://www.w3.org/1999/xlink">
<g><path style="opacity:0.952" fill="#000000" d="M 511.5,92.5 C 511.5,183.5 511.5,274.5 511.5,365.5C 510.354,367.475 508.687,368.975 506.5,370C 488.076,370.548 471.409,376.215 456.5,387C 435.069,396.006 413.402,396.673 391.5,389C 379.833,382 368.167,375 356.5,368C 333.334,361.542 313.001,366.542 295.5,383C 261.271,401.061 229.604,397.395 200.5,372C 185.683,364.397 170.35,363.064 154.5,368C 142.833,375 131.167,382 119.5,389C 88.9137,399.778 61.5803,394.445 37.5,373C 27.249,367.353 16.249,364.353 4.5,364C 2.31305,362.975 0.646381,361.475 -0.5,359.5C -0.5,270.5 -0.5,181.5 -0.5,92.5C 0.646381,90.525 2.31305,89.025 4.5,88C 49.8321,87.5 95.1654,87.3333 140.5,87.5C 137.054,50.7996 152.388,25.6329 186.5,12C 206.667,6.86822 227,6.20155 247.5,10C 266.092,15.2578 279.926,26.4245 289,43.5C 306.419,17.5419 330.919,5.54195 362.5,7.5C 403.214,6.72555 428.381,26.0589 438,65.5C 439.445,72.6716 440.612,79.8383 441.5,87C 463.167,87.3333 484.833,87.6667 506.5,88C 508.687,89.025 510.354,90.525 511.5,92.5 Z M 204.5,26.5 C 251.501,19.6781 277.167,39.8447 281.5,87C 275.843,87.4994 270.176,87.6661 264.5,87.5C 264.707,57.5403 249.874,42.8736 220,43.5C 204.904,41.9284 192.238,46.595 182,57.5C 178.362,64.0169 176.362,71.0169 176,78.5C 175.5,146.166 175.333,213.833 175.5,281.5C 169.811,281.532 164.145,281.866 158.5,282.5C 158.019,209.135 158.519,135.802 160,62.5C 165.662,48.1691 175.495,37.6691 189.5,31C 194.647,29.558 199.647,28.058 204.5,26.5 Z M 345.5,26.5 C 392.821,19.8427 418.487,40.176 422.5,87.5C 416.833,87.5 411.167,87.5 405.5,87.5C 406.429,73.1105 401.762,60.9438 391.5,51C 385.778,47.0917 379.445,44.7584 372.5,44C 362.788,43.1759 353.121,43.5093 343.5,45C 325.31,50.1664 316.476,62.333 317,81.5C 316.833,149.169 316.333,216.836 315.5,284.5C 310.468,286.433 305.635,288.766 301,291.5C 300.333,215.5 300.333,139.5 301,63.5C 308.9,42.8034 323.733,30.4701 345.5,26.5 Z M 215.5,61.5 C 223.537,61.2938 231.203,62.7938 238.5,66C 240.378,67.5429 241.878,69.3762 243,71.5C 244.745,76.5747 245.912,81.7414 246.5,87C 229.17,87.4999 211.837,87.6666 194.5,87.5C 192.093,70.9285 199.093,62.2618 215.5,61.5 Z M 357.5,61.5 C 377.215,59.2257 387.215,67.8924 387.5,87.5C 370.167,87.5 352.833,87.5 335.5,87.5C 333.299,70.387 340.633,61.7203 357.5,61.5 Z M 17.5,105.5 C 58.5,105.5 99.5,105.5 140.5,105.5C 140.833,166.837 140.5,228.17 139.5,289.5C 129.667,295.917 119.667,302.084 109.5,308C 96.9327,312.18 84.266,312.514 71.5,309C 61.2668,305.217 51.2668,300.884 41.5,296C 34.0039,293.376 26.3372,291.542 18.5,290.5C 17.5,228.837 17.1667,167.17 17.5,105.5 Z M 194.5,105.5 C 223.5,105.5 252.5,105.5 281.5,105.5C 281.5,111.167 281.5,116.833 281.5,122.5C 252.5,122.5 223.5,122.5 194.5,122.5C 194.5,116.833 194.5,111.167 194.5,105.5 Z M 335.5,105.5 C 388.167,105.5 440.833,105.5 493.5,105.5C 493.833,167.17 493.5,228.837 492.5,290.5C 483.617,291.721 474.95,293.888 466.5,297C 452.596,305.857 437.429,310.69 421,311.5C 414.394,310.914 407.894,309.748 401.5,308C 389.833,301 378.167,294 366.5,287C 356.539,283.077 346.206,281.244 335.5,281.5C 335.5,222.833 335.5,164.167 335.5,105.5 Z M 194.5,141.5 C 223.5,141.5 252.5,141.5 281.5,141.5C 281.5,146.833 281.5,152.167 281.5,157.5C 252.5,157.5 223.5,157.5 194.5,157.5C 194.5,152.167 194.5,146.833 194.5,141.5 Z M 194.5,176.5 C 223.5,176.5 252.5,176.5 281.5,176.5C 281.5,182.167 281.5,187.833 281.5,193.5C 252.5,193.5 223.5,193.5 194.5,193.5C 194.5,187.833 194.5,182.167 194.5,176.5 Z M 194.5,211.5 C 223.5,211.5 252.5,211.5 281.5,211.5C 281.5,217.167 281.5,222.833 281.5,228.5C 252.5,228.5 223.5,228.5 194.5,228.5C 194.5,222.833 194.5,217.167 194.5,211.5 Z M 194.5,247.5 C 223.5,247.5 252.5,247.5 281.5,247.5C 281.667,266.503 281.5,285.503 281,304.5C 262.646,313.701 244.48,313.201 226.5,303C 217.004,295.167 206.504,289.001 195,284.5C 194.5,272.171 194.333,259.838 194.5,247.5 Z M 163.5,300.5 C 176.996,298.875 189.663,301.375 201.5,308C 229.992,332.434 260.992,336.101 294.5,319C 304.111,309.86 315.445,303.86 328.5,301C 341.189,298.964 353.189,300.964 364.5,307C 391.785,330.854 422.451,336.187 456.5,323C 467.966,316.012 480.3,311.512 493.5,309.5C 493.5,323.833 493.5,338.167 493.5,352.5C 485.629,353.4 477.962,355.233 470.5,358C 460.564,363.801 450.231,368.801 439.5,373C 423.643,377.357 408.31,376.024 393.5,369C 383.203,360.016 371.536,353.349 358.5,349C 341.522,344.941 324.855,345.941 308.5,352C 297.334,358.415 286.334,365.082 275.5,372C 262.167,376.667 248.833,376.667 235.5,372C 226.658,367.415 218.325,362.082 210.5,356C 187.962,344.527 164.962,343.527 141.5,353C 131.334,359.584 121,365.918 110.5,372C 93.9115,377.653 77.9115,376.32 62.5,368C 49.8411,356.838 35.1744,349.671 18.5,346.5C 17.501,334.185 17.1676,321.851 17.5,309.5C 30.6991,311.512 43.0324,316.012 54.5,323C 88.5487,336.187 119.215,330.854 146.5,307C 152.16,304.507 157.826,302.341 163.5,300.5 Z"/></g>
<g><path style="opacity:0.968" fill="#000000" d="M 465.5,122.5 C 470.382,122.175 473.882,124.175 476,128.5C 476.667,163.167 476.667,197.833 476,232.5C 470.827,240.036 465.16,240.369 459,233.5C 458.333,198.167 458.333,162.833 459,127.5C 460.805,125.174 462.972,123.508 465.5,122.5 Z"/></g>
<g><path style="opacity:0.92" fill="#000000" d="M 463.5,255.5 C 468.946,254.339 473.113,256.006 476,260.5C 476.667,265.833 476.667,271.167 476,276.5C 470.785,284.09 465.118,284.423 459,277.5C 458.333,271.833 458.333,266.167 459,260.5C 460.025,258.313 461.525,256.646 463.5,255.5 Z"/></g>
<g><path style="opacity:0.941" fill="#000000" d="M 511.5,401.5 C 511.5,422.5 511.5,443.5 511.5,464.5C 510.326,466.441 508.659,467.941 506.5,469C 488.809,469.182 474.142,475.848 462.5,489C 440.791,504.043 417.457,507.043 392.5,498C 380.5,490.667 368.5,483.333 356.5,476C 342.235,470.96 328.235,471.626 314.5,478C 307.484,482.174 300.817,486.841 294.5,492C 260.354,509.762 229.021,505.762 200.5,480C 181.637,469.746 162.97,470.079 144.5,481C 116.353,506.018 85.6866,509.685 52.5,492C 46.1984,486.186 39.5317,480.853 32.5,476C 23.7127,471.534 14.3794,469.201 4.5,469C 2.34079,467.941 0.674125,466.441 -0.5,464.5C -0.5,443.5 -0.5,422.5 -0.5,401.5C 0.646381,399.525 2.31305,398.025 4.5,397C 17.9738,395.828 30.6404,398.495 42.5,405C 49.7438,409.573 56.4105,414.907 62.5,421C 80.9462,431.913 99.6129,432.246 118.5,422C 146.745,396.639 177.745,392.639 211.5,410C 218.487,415.494 225.82,420.494 233.5,425C 250.632,431.752 267.299,430.752 283.5,422C 311.657,396.579 342.657,392.579 376.5,410C 386.132,419.281 397.465,425.614 410.5,429C 424.21,431.071 436.877,428.404 448.5,421C 458.197,411.151 469.531,403.817 482.5,399C 490.38,396.818 498.38,396.152 506.5,397C 508.687,398.025 510.354,399.525 511.5,401.5 Z M 17.5,415.5 C 29.8741,419.188 40.5408,425.688 49.5,435C 83.369,455.399 115.036,452.399 144.5,426C 163.5,414.667 182.5,414.667 201.5,426C 229.399,450.938 260.065,454.938 293.5,438C 322.294,411.202 351.294,410.868 380.5,437C 405.108,451.486 430.108,452.153 455.5,439C 462.833,433.333 470.167,427.667 477.5,422C 482.404,419.129 487.571,416.962 493,415.5C 493.833,427.514 493.666,439.514 492.5,451.5C 482.163,453.667 472.497,457.501 463.5,463C 436.084,490.597 407.75,491.597 378.5,466C 344.842,447.369 313.509,450.703 284.5,476C 265.167,487.333 245.833,487.333 226.5,476C 190.833,446 155.167,446 119.5,476C 99.9249,487.582 80.5916,487.249 61.5,475C 49.7928,462.478 35.4594,454.644 18.5,451.5C 17.501,439.518 17.1677,427.518 17.5,415.5 Z"/></g>
</svg>
